Coordinates
version=1
nRows=8
nColumns=63
inDegrees=yes

Units are S.I. units (second, meters, Newtons, ...)
If the header above contains a line with 'inDegrees', this indicates whether rotational values are in degrees (yes) or radians (no).

endheader
time	pelvis_tilt	pelvis_list	pelvis_rotation	pelvis_tx	pelvis_ty	pelvis_tz	hip_flexion_r	hip_adduction_r	hip_rotation_r	knee_angle_r	knee_angle_r_beta	ankle_angle_r	subtalar_angle_r	mtp_angle_r	hip_flexion_l	hip_adduction_l	hip_rotation_l	knee_angle_l	knee_angle_l_beta	ankle_angle_l	subtalar_angle_l	mtp_angle_l	L5_S1_Flex_Ext	L5_S1_Lat_Bending	L5_S1_axial_rotation	L4_L5_Flex_Ext	L4_L5_Lat_Bending	L4_L5_axial_rotation	L3_L4_Flex_Ext	L3_L4_Lat_Bending	L3_L4_axial_rotation	L2_L3_Flex_Ext	L2_L3_Lat_Bending	L2_L3_axial_rotation	L1_L2_Flex_Ext	L1_L2_Lat_Bending	L1_L2_axial_rotation	L1_T12_Flex_Ext	L1_T12_Lat_Bending	L1_T12_axial_rotation	Abs_r3	Abs_r2	Abs_r1	Abs_t1	Abs_t2	neck_flexion	neck_bending	neck_rotation	arm_flex_r	arm_add_r	arm_rot_r	elbow_flex_r	pro_sup_r	wrist_flex_r	wrist_dev_r	arm_flex_l	arm_add_l	arm_rot_l	elbow_flex_l	pro_sup_l	wrist_flex_l	wrist_dev_l
      2.76666667	      3.88661338	    -12.93919447	    122.79782642	     -0.45671416	      0.88069911	      0.04529391	     18.35075840	    -45.52271542	    -69.80831977	     60.91470949	      1.06316224	      4.67960471	    -19.83242152	      0.00000000	     11.15199571	     20.47835725	     39.56755242	     21.75149145	      0.37963514	     59.83568600	     18.52538898	      0.00000000	     -0.09733111	     -1.86744987	      6.66247056	     -0.18075361	     -2.48370833	      7.07887497	     -0.15990528	     -4.54051761	      7.07887497	     -0.11123973	     -4.54051761	      5.82966174	     -0.09038167	     -3.80810378	      5.41325733	     -0.05561500	     -2.89267985	      4.99685292	     -0.69522640	    -21.12496642	     37.05466250	      0.00000000	      0.00000000	     27.51558161	     -7.83824799	    -43.82331552	     13.77370742	     -5.44537223	    -71.02101480	      3.92581921	    -50.20894347	     19.94945779	      5.00000014	     -5.21800259	    -22.98893861	    -86.96832222	      2.22348497	    -56.67666398	     19.94945779	      5.00000014
      2.80000000	      4.96884373	    -12.03162882	    124.08190897	     -0.45915676	      0.88051566	      0.04607288	     14.31917195	    -40.58292232	    -69.81858516	     53.11745583	      0.92707449	      0.07223041	    -19.84087040	      0.00000000	     13.71945865	     21.17452715	     39.61107576	     27.37388828	      0.47776448	     59.83559045	     18.57491905	      0.00000000	     -0.05138368	     -1.65634160	      6.53255781	     -0.09542464	     -2.20293432	      6.94084268	     -0.08441825	     -4.02722896	      6.94084268	     -0.05872641	     -4.02722896	      5.71598809	     -0.04771489	     -3.37761179	      5.30770322	     -0.02936064	     -2.56567313	      4.89941836	     -0.36702851	    -18.73686742	     36.33212679	      0.00000000	      0.00000000	     27.49996595	     -7.52739354	    -43.82455552	     13.43221094	     -6.08995539	    -72.25069064	      4.08433327	    -50.23970390	     19.95071685	      5.00000014	     -5.90156245	    -21.60206461	    -85.64984508	      2.26707006	    -56.01042509	     19.95071685	      5.00000014
      2.83333333	      6.59627106	    -11.02276279	    127.60997805	     -0.46189265	      0.87927588	      0.04808897	     11.00067921	    -35.22172082	    -69.81158264	     46.73538493	      0.81568634	     -1.43218016	    -19.82616349	      0.00000000	     16.42335668	     21.67831655	     39.63832282	     33.24933582	      0.58031038	     59.83849660	     18.72638181	      0.00000000	      0.00730654	     -1.39972706	      5.99707457	      0.01356898	     -1.86163699	      6.37189173	      0.01200392	     -3.40329637	      6.37189173	      0.00835065	     -3.40329637	      5.24744025	      0.00678486	     -2.85432341	      4.87262309	      0.00417496	     -2.16817721	      4.49780593	      0.05218990	    -15.83399241	     33.35392964	      0.00000000	      0.00000000	     27.48992483	     -7.65063039	    -43.82488650	     13.20219708	     -6.83080169	    -73.17772374	      4.32740493	    -50.27128636	     19.95135375	      5.00000014	     -6.17394224	    -19.95034755	    -84.21587485	      2.19606860	    -55.73097645	     19.95135375	      5.00000014
      2.86666667	      7.77174296	    -10.12239191	    130.66897162	     -0.46380323	      0.87723055	      0.04973134	      8.48832939	    -31.00463772	    -69.80392740	     42.07929926	      0.73442232	     -1.93161740	    -19.81260415	      0.00000000	     19.06417149	     22.55736690	     39.64399330	     38.95318017	      0.67986125	     59.84078976	     18.72686585	      0.00000000	      0.04940311	     -1.18858718	      5.57031107	      0.09174652	     -1.58082095	      5.91845551	      0.08116438	     -2.88993087	      5.91845551	      0.05646282	     -2.88993087	      4.87402218	      0.04587573	     -2.42376698	      4.52587774	      0.02822894	     -1.84112154	      4.17773330	      0.35288150	    -13.44553591	     30.98039907	      0.00000000	      0.00000000	     27.50607999	     -9.72629224	    -43.82927129	     13.10119767	     -7.56865541	    -79.74903186	      4.80582619	    -50.41751187	     19.95527402	      5.00000014	     -6.11836208	    -18.19526271	    -74.29202929	      1.84705211	    -54.42851640	     19.95527402	      5.00000014
      2.90000000	      8.45156382	     -9.63019029	    133.04511569	     -0.46457384	      0.87475743	      0.05107743	      7.15227629	    -28.67117386	    -69.79878571	     39.91095009	      0.69657749	     -1.34354919	    -19.80317505	      0.00000000	     21.82940160	     23.90462148	     39.62513058	     44.31889398	      0.77351062	     59.84356825	     18.63264015	      0.00000000	      0.07768086	     -1.04485716	      5.21142531	      0.14426112	     -1.38966002	      5.53713939	      0.12762188	     -2.54046569	      5.53713939	      0.08878145	     -2.54046569	      4.55999715	      0.07213444	     -2.13067272	      4.23428306	      0.04438684	     -1.61848374	      3.90856898	      0.55486659	    -11.81963314	     28.98438415	      0.00000000	      0.00000000	     27.49766078	     -9.95025323	    -43.82550750	     13.08075850	     -8.17223208	    -80.65200768	      4.95624305	    -50.33878171	     19.95597829	      5.00000014	     -5.53063476	    -16.71764101	    -73.80522795	      1.86131799	    -54.62644443	     19.95597829	      5.00000014
      2.93333333	      9.21309612	     -7.35469404	    129.12566517	     -0.46225160	      0.87249925	      0.04783166	      6.31546465	    -24.25248646	    -69.79419983	     37.12164196	      0.64789488	      1.61134850	    -19.78733589	      0.00000000	     20.78208644	     22.01808778	     39.72898915	     45.24389791	      0.78965498	     59.31168841	     19.59297523	      0.00000000	      0.09654998	     -0.68180517	      6.02312629	      0.17930296	     -0.90680088	      6.39957168	      0.15862196	     -1.65774109	      6.39957168	      0.11034697	     -1.65774109	      5.27023550	      0.08965631	     -1.39033710	      4.89379011	      0.05516866	     -1.05611621	      4.51734472	      0.68964683	     -7.71271644	     33.49882148	      0.00000000	      0.00000000	     27.49578571	    -11.72828943	    -43.81887641	     12.67995227	     -9.82190460	    -82.27905916	      5.00305150	    -50.25065259	     19.95694914	      5.00000014	     -5.01380148	    -14.29516158	    -72.82162576	      2.00993749	    -54.72408369	     19.95694914	      5.00000014
      2.96666667	      9.28937664	     -7.66061506	    131.41063193	     -0.46214515	      0.87072305	      0.04921020	      6.82252773	    -25.43991440	    -69.80339490	     39.61289473	      0.69137544	      3.02243617	    -19.79572057	      0.00000000	     24.05964821	     23.66215405	     39.65529282	     50.10188367	      0.87444283	     59.52716602	     19.44142888	      0.00000000	      0.11032093	     -0.64417544	      5.67147329	      0.20487699	     -0.85675334	      6.02594037	      0.18124625	     -1.56624818	      6.02594037	      0.12608579	     -1.56624818	      4.96253913	      0.10244401	     -1.31360257	      4.60807205	      0.06303738	     -0.99782776	      4.25360497	      0.78801135	     -7.28704147	     31.54303300	      0.00000000	      0.00000000	     27.49582679	    -12.13020982	    -43.81986324	     12.60391844	    -10.13987071	    -82.75445575	      5.50384776	    -50.21108346	     19.95718582	      5.00000014	     -3.75221275	    -13.10303944	    -72.63798274	      2.18383363	    -54.70811116	     19.95718582	      5.00000014
      3.00000000	      9.26540755	     -8.55721370	    134.81079846	     -0.46223827	      0.86943657	      0.05197267	      8.26132902	    -29.16892307	    -69.80927241	     45.21538504	      0.78915734	      3.05292510	    -19.81452822	      0.00000000	     28.05436960	     26.02006743	     39.46528695	     54.89877940	      0.95816446	     59.70355714	     18.87855826	      0.00000000	      0.12045794	     -0.66602553	      5.15749499	      0.22370245	     -0.88581395	      5.47983843	      0.19790036	     -1.61937446	      5.47983843	      0.13767138	     -1.61937446	      4.51280812	      0.11185725	     -1.35815925	      4.19046468	      0.06882967	     -1.03167354	      3.86812124	      0.86041905	     -7.53421396	     28.68443989	      0.00000000	      0.00000000	     27.52575975	    -14.42976073	    -43.84044752	     13.09701991	    -10.58703531	    -97.55067534	      7.17989443	    -47.60361814	     19.96765578	      5.00000014	     -1.94297702	    -12.13026932	    -74.47010293	      2.52874243	    -51.46651024	     19.96765578	      5.00000014
